<?xml version="1.0" encoding="utf-8"?>
<!-- Generator: Adobe Illustrator 19.2.1, SVG Export Plug-In . SVG Version: 6.00 Build 0)  -->
<!DOCTYPE svg PUBLIC "-//W3C//DTD SVG 1.1//EN" "http://www.w3.org/Graphics/SVG/1.1/DTD/svg11.dtd">
<svg version="1.1" id="Layer_1" xmlns="http://www.w3.org/2000/svg" xmlns:xlink="http://www.w3.org/1999/xlink" x="0px" y="0px"
	 viewBox="0 0 716.9169 161.1074" style="enable-background:new 0 0 716.9169 161.1074;" xml:space="preserve">
<style type="text/css">
	.st0{fill:#22445D;}
	.st1{fill:#E07F5A;}
	.st2{fill:#59A8E2;}
</style>
<path class="st0" d="M538.2499,84.1098h-12v-4h12V84.1098z M514.2499,84.1098h-12v-4h12V84.1098z M490.2499,84.1098h-5v-4h5V84.1098
	z"/>
<path class="st0" d="M581.2499,135.5224h-12v-4h12V135.5224z M557.2499,135.5224h-12v-4h12V135.5224z M533.2499,135.5224h-12v-4h12
	V135.5224z M509.2499,135.5224h-12v-4h12V135.5224z"/>
<rect x="504.4706" y="28.6977" class="st0" width="12" height="4"/>
<path class="st0" d="M238.2309,84.1958h-11.481v-4h11.481V84.1958z M214.7499,84.1958h-12v-4h12V84.1958z M190.7499,84.1958h-12v-4
	h12V84.1958z M166.7499,84.1958h-12v-4h12V84.1958z"/>
<path class="st0" d="M228.2309,32.6977h-11.6475v-4h11.6475V32.6977z M204.5834,32.6977h-12v-4h12V32.6977z M180.5834,32.6977h-12
	v-4h12V32.6977z M156.5834,32.6977h-12v-4h12V32.6977z M132.5834,32.6977h-12v-4h12V32.6977z"/>
<g>
	<polygon class="st0" points="58.3285,135.522 50.3285,135.522 50.3285,131.522 54.3285,131.522 54.3285,127.522 58.3285,127.522 	
		"/>
	<rect x="24.0541" y="131.522" class="st0" width="13.1372" height="4"/>
	<polygon class="st0" points="10.9164,135.522 2.9164,135.522 2.9164,127.522 6.9164,127.522 6.9164,131.522 10.9164,131.522 	"/>
	<rect x="2.9164" y="101.2475" class="st0" width="4" height="13.1372"/>
	<polygon class="st0" points="6.9164,88.1098 2.9164,88.1098 2.9164,80.1098 10.9164,80.1098 10.9164,84.1098 6.9164,84.1098 	"/>
	<rect x="24.0541" y="80.1098" class="st0" width="13.1372" height="4"/>
	<polygon class="st0" points="58.3285,88.1098 54.3285,88.1098 54.3285,84.1098 50.3285,84.1098 50.3285,80.1098 58.3285,80.1098 	
		"/>
	<rect x="54.3285" y="101.2475" class="st0" width="4" height="13.1372"/>
</g>
<g>
	<polygon class="st0" points="109.7411,135.522 101.7411,135.522 101.7411,131.522 105.7411,131.522 105.7411,127.522 
		109.7411,127.522 	"/>
	<rect x="75.4662" y="131.522" class="st0" width="13.1372" height="4"/>
	<polygon class="st0" points="62.3285,135.522 54.3285,135.522 54.3285,127.522 58.3285,127.522 58.3285,131.522 62.3285,131.522 	
		"/>
	<rect x="54.3285" y="101.2475" class="st0" width="4" height="13.1372"/>
	<polygon class="st0" points="58.3285,88.1098 54.3285,88.1098 54.3285,80.1098 62.3285,80.1098 62.3285,84.1098 58.3285,84.1098 	
		"/>
	<rect x="75.4662" y="80.1098" class="st0" width="13.1372" height="4"/>
	<polygon class="st0" points="109.7411,88.1098 105.7411,88.1098 105.7411,84.1098 101.7411,84.1098 101.7411,80.1098 
		109.7411,80.1098 	"/>
	<rect x="105.7411" y="101.2475" class="st0" width="4" height="13.1372"/>
</g>
<g>
	<polygon class="st0" points="84.0346,84.1098 76.0346,84.1098 76.0346,80.1098 80.0346,80.1098 80.0346,76.1098 84.0346,76.1098 	
		"/>
	<rect x="49.7602" y="80.1098" class="st0" width="13.1372" height="4"/>
	<polygon class="st0" points="36.6225,84.1098 28.6225,84.1098 28.6225,76.1098 32.6225,76.1098 32.6225,80.1098 36.6225,80.1098 	
		"/>
	<rect x="28.6225" y="49.8354" class="st0" width="4" height="13.1372"/>
	<polygon class="st0" points="32.6225,36.6977 28.6225,36.6977 28.6225,28.6977 36.6225,28.6977 36.6225,32.6977 32.6225,32.6977 	
		"/>
	<rect x="49.7602" y="28.6977" class="st0" width="13.1372" height="4"/>
	<polygon class="st0" points="84.0346,36.6977 80.0346,36.6977 80.0346,32.6977 76.0346,32.6977 76.0346,28.6977 84.0346,28.6977 	
		"/>
	<rect x="80.0346" y="49.8354" class="st0" width="4" height="13.1372"/>
</g>
<path class="st0" d="M662.5048,135.5224h-55.4121V80.1098h55.4121V135.5224z M611.0927,131.5224h47.4121V84.1098h-47.4121V131.5224z
	"/>
<path class="st0" d="M713.9169,135.5224h-55.4121V80.1098h55.4121V135.5224z M662.5048,131.5224h47.4121V84.1098h-47.4121V131.5224z
	"/>
<path class="st0" d="M688.2109,84.1098h-55.4121V28.6977h55.4121V84.1098z M636.7988,80.1098h47.4121V32.6977h-47.4121V80.1098z"/>
<path class="st1" d="M207.0937,155.7554c-18.791,0-33.5107-32.7856-33.5107-74.6401s14.7197-74.6406,33.5107-74.6406
	s33.5107,32.7861,33.5107,74.6406S225.8847,155.7554,207.0937,155.7554z M207.0937,10.4746
	c-15.9966,0-29.5107,32.3496-29.5107,70.6406s13.5142,70.6401,29.5107,70.6401s29.5107-32.3491,29.5107-70.6401
	S223.0903,10.4746,207.0937,10.4746z"/>
<path class="st2" d="M516.4706,155.7554c-18.791,0-33.5108-32.7856-33.5108-74.6401s14.7197-74.6406,33.5108-74.6406
	c18.791,0,33.5107,32.7861,33.5107,74.6406S535.2617,155.7554,516.4706,155.7554z M516.4706,10.4746
	c-15.9961,0-29.5108,32.3496-29.5108,70.6406s13.5146,70.6401,29.5108,70.6401c15.9961,0,29.5107-32.3491,29.5107-70.6401
	S532.4667,10.4746,516.4706,10.4746z"/>
<path class="st0" d="M224.9999,130.1616h-12v-4h12V130.1616z M200.9999,130.1616h-12v-4h12V130.1616z"/>
<g>
	<rect x="646.8749" y="41.7261" class="st0" width="3" height="30.4932"/>
	<rect x="658.7431" y="41.7261" class="st0" width="3" height="30.4932"/>
	<rect x="670.8749" y="41.7261" class="st0" width="3" height="30.4932"/>
</g>
<g>
	<rect x="621.2988" y="92.8931" class="st0" width="3" height="30.4932"/>
	<rect x="633.1669" y="92.8931" class="st0" width="3" height="30.4932"/>
	<rect x="645.2988" y="92.8931" class="st0" width="3" height="30.4932"/>
</g>
<g>
	<rect x="672.7109" y="92.5693" class="st0" width="3" height="30.4932"/>
	<rect x="684.579" y="92.5693" class="st0" width="3" height="30.4932"/>
	<rect x="696.7109" y="92.5693" class="st0" width="3" height="30.4932"/>
</g>
</svg>
